<svg xmlns="http://www.w3.org/2000/svg" width="100%" height="100%" viewBox="0 0 512 512" id="chest">
<defs id="chest_defs30"><script id="chest_script2"></script></defs>
      <path id="chest_rect857" fill="none" stroke="#fff" stroke-width="1.038" stroke-linecap="square" stroke-linejoin="round" d="M2502.582 940.506h608.979v519.228h-608.979z" class="svg-elem-1"></path>
      <path d="M512 75H0V45C0 20.147 20.147 0 45 0h422c24.853 0 45 20.147 45 45z" fill="none" stroke="#fff" data-original="#000000" id="chest_path4" class="svg-elem-2"></path>
<path d="M512 75H0V45C0 20.147 20.147 0 45 0h422c24.853 0 45 20.147 45 45z" fill="none" stroke="#fff" data-original="#000000" id="chest_path4" class="svg-elem-3"></path>
<path d="M512 75H0V45C0 20.147 20.147 0 45 0h422c24.853 0 45 20.147 45 45z" fill="none" stroke="#fff" data-original="#000000" id="chest_path4" class="svg-elem-4"></path>
<path d="M512 75H0V45C0 20.147 20.147 0 45 0h422c24.853 0 45 20.147 45 45z" fill="none" stroke="#fff" data-original="#000000" id="chest_path4" class="svg-elem-5"></path>
<path d="M512 75H0V45C0 20.147 20.147 0 45 0h422c24.853 0 45 20.147 45 45z" fill="none" stroke="#fff" data-original="#000000" id="chest_path4" class="svg-elem-6"></path>
<path d="M512 75H0V45C0 20.147 20.147 0 45 0h422c24.853 0 45 20.147 45 45z" fill="none" stroke="#fff" data-original="#000000" id="chest_path4" class="svg-elem-7"></path>
<path d="M512 75H0V45C0 20.147 20.147 0 45 0h422c24.853 0 45 20.147 45 45z" fill="none" stroke="#fff" data-original="#000000" id="chest_path4" class="svg-elem-8"></path>
<path d="M512 75H0V45C0 20.147 20.147 0 45 0h422c24.853 0 45 20.147 45 45z" fill="none" stroke="#fff" data-original="#000000" id="chest_path4" class="svg-elem-9"></path>
<path d="M512 75H0V45C0 20.147 20.147 0 45 0h422c24.853 0 45 20.147 45 45z" fill="none" stroke="#fff" data-original="#000000" id="chest_path4" class="svg-elem-10"></path>
<path d="M512 75H0V45C0 20.147 20.147 0 45 0h422c24.853 0 45 20.147 45 45z" fill="none" stroke="#fff" data-original="#000000" id="chest_path4" class="svg-elem-11"></path>
<path d="M512 75H0V45C0 20.147 20.147 0 45 0h422c24.853 0 45 20.147 45 45z" fill="none" stroke="#fff" data-original="#000000" id="chest_path4" class="svg-elem-12"></path>
<path d="M512 75H0V45C0 20.147 20.147 0 45 0h422c24.853 0 45 20.147 45 45z" fill="none" stroke="#fff" data-original="#000000" id="chest_path4" class="svg-elem-13"></path>
<path d="M512 75H0V45C0 20.147 20.147 0 45 0h422c24.853 0 45 20.147 45 45z" fill="none" stroke="#fff" data-original="#000000" id="chest_path4" class="svg-elem-14"></path>
<path d="M512 75H0V45C0 20.147 20.147 0 45 0h422c24.853 0 45 20.147 45 45z" fill="none" stroke="#fff" data-original="#000000" id="chest_path4" class="svg-elem-15"></path>
<path d="M512 75H0V45C0 20.147 20.147 0 45 0h422c24.853 0 45 20.147 45 45z" fill="none" stroke="#fff" data-original="#000000" id="chest_path4" class="svg-elem-16"></path>
<path d="M512 75H0V45C0 20.147 20.147 0 45 0h422c24.853 0 45 20.147 45 45z" fill="none" stroke="#fff" data-original="#000000" id="chest_path4" class="svg-elem-17"></path>
<path d="M512 75H0V45C0 20.147 20.147 0 45 0h422c24.853 0 45 20.147 45 45z" fill="none" stroke="#fff" data-original="#000000" id="chest_path4" class="svg-elem-18"></path>
<path d="M512 75H0V45C0 20.147 20.147 0 45 0h422c24.853 0 45 20.147 45 45z" fill="none" stroke="#fff" data-original="#000000" id="chest_path4" class="svg-elem-19"></path>
<path d="M512 75H0V45C0 20.147 20.147 0 45 0h422c24.853 0 45 20.147 45 45z" fill="none" stroke="#fff" data-original="#000000" id="chest_path4" class="svg-elem-20"></path>
<path d="M512 75H0V45C0 20.147 20.147 0 45 0h422c24.853 0 45 20.147 45 45z" fill="none" stroke="#fff" data-original="#000000" id="chest_path4" class="svg-elem-21"></path>
<path d="M512 75H0V45C0 20.147 20.147 0 45 0h422c24.853 0 45 20.147 45 45z" fill="none" stroke="#fff" data-original="#000000" id="chest_path4" class="svg-elem-22"></path>
<path d="M512 75H0V45C0 20.147 20.147 0 45 0h422c24.853 0 45 20.147 45 45z" fill="none" stroke="#fff" data-original="#000000" id="chest_path4" class="svg-elem-23"></path>
<path d="M512 75H0V45C0 20.147 20.147 0 45 0h422c24.853 0 45 20.147 45 45z" fill="none" stroke="#fff" data-original="#000000" id="chest_path4" class="svg-elem-24"></path>
<path d="M512 75H0V45C0 20.147 20.147 0 45 0h422c24.853 0 45 20.147 45 45z" fill="none" stroke="#fff" data-original="#000000" id="chest_path4" class="svg-elem-25"></path>
      
<path d="M25.679 366.63H0v121.142C0 501.152 11.497 512 25.679 512h128.395v-24.228c0-66.798-57.598-121.143-128.395-121.143z" fill="none" stroke="#fff" data-original="#000000" id="chest_path6" stroke-width="1.663" class="svg-elem-26"></path>
<path d="M25.679 366.63H0v121.142C0 501.152 11.497 512 25.679 512h128.395v-24.228c0-66.798-57.598-121.143-128.395-121.143z" fill="none" stroke="#fff" data-original="#000000" id="chest_path6" stroke-width="1.663" class="svg-elem-27"></path>
<path d="M25.679 366.63H0v121.142C0 501.152 11.497 512 25.679 512h128.395v-24.228c0-66.798-57.598-121.143-128.395-121.143z" fill="none" stroke="#fff" data-original="#000000" id="chest_path6" stroke-width="1.663" class="svg-elem-28"></path>
<path d="M25.679 366.63H0v121.142C0 501.152 11.497 512 25.679 512h128.395v-24.228c0-66.798-57.598-121.143-128.395-121.143z" fill="none" stroke="#fff" data-original="#000000" id="chest_path6" stroke-width="1.663" class="svg-elem-29"></path>
<path d="M25.679 366.63H0v121.142C0 501.152 11.497 512 25.679 512h128.395v-24.228c0-66.798-57.598-121.143-128.395-121.143z" fill="none" stroke="#fff" data-original="#000000" id="chest_path6" stroke-width="1.663" class="svg-elem-30"></path>
<path d="M25.679 366.63H0v121.142C0 501.152 11.497 512 25.679 512h128.395v-24.228c0-66.798-57.598-121.143-128.395-121.143z" fill="none" stroke="#fff" data-original="#000000" id="chest_path6" stroke-width="1.663" class="svg-elem-31"></path>
<path d="M25.679 366.63H0v121.142C0 501.152 11.497 512 25.679 512h128.395v-24.228c0-66.798-57.598-121.143-128.395-121.143z" fill="none" stroke="#fff" data-original="#000000" id="chest_path6" stroke-width="1.663" class="svg-elem-32"></path>
<path d="M25.679 366.63H0v121.142C0 501.152 11.497 512 25.679 512h128.395v-24.228c0-66.798-57.598-121.143-128.395-121.143z" fill="none" stroke="#fff" data-original="#000000" id="chest_path6" stroke-width="1.663" class="svg-elem-33"></path>
<path d="M25.679 366.63H0v121.142C0 501.152 11.497 512 25.679 512h128.395v-24.228c0-66.798-57.598-121.143-128.395-121.143z" fill="none" stroke="#fff" data-original="#000000" id="chest_path6" stroke-width="1.663" class="svg-elem-34"></path>
<path d="M25.679 366.63H0v121.142C0 501.152 11.497 512 25.679 512h128.395v-24.228c0-66.798-57.598-121.143-128.395-121.143z" fill="none" stroke="#fff" data-original="#000000" id="chest_path6" stroke-width="1.663" class="svg-elem-35"></path>
<path d="M25.679 366.63H0v121.142C0 501.152 11.497 512 25.679 512h128.395v-24.228c0-66.798-57.598-121.143-128.395-121.143z" fill="none" stroke="#fff" data-original="#000000" id="chest_path6" stroke-width="1.663" class="svg-elem-36"></path>
<path d="M25.679 366.63H0v121.142C0 501.152 11.497 512 25.679 512h128.395v-24.228c0-66.798-57.598-121.143-128.395-121.143z" fill="none" stroke="#fff" data-original="#000000" id="chest_path6" stroke-width="1.663" class="svg-elem-37"></path>
<path d="M25.679 366.63H0v121.142C0 501.152 11.497 512 25.679 512h128.395v-24.228c0-66.798-57.598-121.143-128.395-121.143z" fill="none" stroke="#fff" data-original="#000000" id="chest_path6" stroke-width="1.663" class="svg-elem-38"></path>
<path d="M25.679 366.63H0v121.142C0 501.152 11.497 512 25.679 512h128.395v-24.228c0-66.798-57.598-121.143-128.395-121.143z" fill="none" stroke="#fff" data-original="#000000" id="chest_path6" stroke-width="1.663" class="svg-elem-39"></path>
<path d="M25.679 366.63H0v121.142C0 501.152 11.497 512 25.679 512h128.395v-24.228c0-66.798-57.598-121.143-128.395-121.143z" fill="none" stroke="#fff" data-original="#000000" id="chest_path6" stroke-width="1.663" class="svg-elem-40"></path>
<path d="M25.679 366.63H0v121.142C0 501.152 11.497 512 25.679 512h128.395v-24.228c0-66.798-57.598-121.143-128.395-121.143z" fill="none" stroke="#fff" data-original="#000000" id="chest_path6" stroke-width="1.663" class="svg-elem-41"></path>
<path d="M25.679 366.63H0v121.142C0 501.152 11.497 512 25.679 512h128.395v-24.228c0-66.798-57.598-121.143-128.395-121.143z" fill="none" stroke="#fff" data-original="#000000" id="chest_path6" stroke-width="1.663" class="svg-elem-42"></path>
<path d="M25.679 366.63H0v121.142C0 501.152 11.497 512 25.679 512h128.395v-24.228c0-66.798-57.598-121.143-128.395-121.143z" fill="none" stroke="#fff" data-original="#000000" id="chest_path6" stroke-width="1.663" class="svg-elem-43"></path>
<path d="M25.679 366.63H0v121.142C0 501.152 11.497 512 25.679 512h128.395v-24.228c0-66.798-57.598-121.143-128.395-121.143z" fill="none" stroke="#fff" data-original="#000000" id="chest_path6" stroke-width="1.663" class="svg-elem-44"></path>
<path d="M25.679 366.63H0v121.142C0 501.152 11.497 512 25.679 512h128.395v-24.228c0-66.798-57.598-121.143-128.395-121.143z" fill="none" stroke="#fff" data-original="#000000" id="chest_path6" stroke-width="1.663" class="svg-elem-45"></path>
<path d="M25.679 366.63H0v121.142C0 501.152 11.497 512 25.679 512h128.395v-24.228c0-66.798-57.598-121.143-128.395-121.143z" fill="none" stroke="#fff" data-original="#000000" id="chest_path6" stroke-width="1.663" class="svg-elem-46"></path>
<path d="M25.679 366.63H0v121.142C0 501.152 11.497 512 25.679 512h128.395v-24.228c0-66.798-57.598-121.143-128.395-121.143z" fill="none" stroke="#fff" data-original="#000000" id="chest_path6" stroke-width="1.663" class="svg-elem-47"></path>
<path d="M25.679 366.63H0v121.142C0 501.152 11.497 512 25.679 512h128.395v-24.228c0-66.798-57.598-121.143-128.395-121.143z" fill="none" stroke="#fff" data-original="#000000" id="chest_path6" stroke-width="1.663" class="svg-elem-48"></path>
<path d="M25.679 366.63H0v121.142C0 501.152 11.497 512 25.679 512h128.395v-24.228c0-66.798-57.598-121.143-128.395-121.143z" fill="none" stroke="#fff" data-original="#000000" id="chest_path6" stroke-width="1.663" class="svg-elem-49"></path>
      
<path d="M347.842 488.877V512H484.64c15.11 0 27.36-10.353 27.36-23.123V373.259h-27.36c-75.43 0-136.798 51.866-136.798 115.618z" fill="none" stroke="#fff" data-original="#000000" id="chest_path8" stroke-width="1.677" class="svg-elem-50"></path>
<path d="M347.842 488.877V512H484.64c15.11 0 27.36-10.353 27.36-23.123V373.259h-27.36c-75.43 0-136.798 51.866-136.798 115.618z" fill="none" stroke="#fff" data-original="#000000" id="chest_path8" stroke-width="1.677" class="svg-elem-51"></path>
<path d="M347.842 488.877V512H484.64c15.11 0 27.36-10.353 27.36-23.123V373.259h-27.36c-75.43 0-136.798 51.866-136.798 115.618z" fill="none" stroke="#fff" data-original="#000000" id="chest_path8" stroke-width="1.677" class="svg-elem-52"></path>
<path d="M347.842 488.877V512H484.64c15.11 0 27.36-10.353 27.36-23.123V373.259h-27.36c-75.43 0-136.798 51.866-136.798 115.618z" fill="none" stroke="#fff" data-original="#000000" id="chest_path8" stroke-width="1.677" class="svg-elem-53"></path>
<path d="M347.842 488.877V512H484.64c15.11 0 27.36-10.353 27.36-23.123V373.259h-27.36c-75.43 0-136.798 51.866-136.798 115.618z" fill="none" stroke="#fff" data-original="#000000" id="chest_path8" stroke-width="1.677" class="svg-elem-54"></path>
<path d="M347.842 488.877V512H484.64c15.11 0 27.36-10.353 27.36-23.123V373.259h-27.36c-75.43 0-136.798 51.866-136.798 115.618z" fill="none" stroke="#fff" data-original="#000000" id="chest_path8" stroke-width="1.677" class="svg-elem-55"></path>
<path d="M347.842 488.877V512H484.64c15.11 0 27.36-10.353 27.36-23.123V373.259h-27.36c-75.43 0-136.798 51.866-136.798 115.618z" fill="none" stroke="#fff" data-original="#000000" id="chest_path8" stroke-width="1.677" class="svg-elem-56"></path>
<path d="M347.842 488.877V512H484.64c15.11 0 27.36-10.353 27.36-23.123V373.259h-27.36c-75.43 0-136.798 51.866-136.798 115.618z" fill="none" stroke="#fff" data-original="#000000" id="chest_path8" stroke-width="1.677" class="svg-elem-57"></path>
<path d="M347.842 488.877V512H484.64c15.11 0 27.36-10.353 27.36-23.123V373.259h-27.36c-75.43 0-136.798 51.866-136.798 115.618z" fill="none" stroke="#fff" data-original="#000000" id="chest_path8" stroke-width="1.677" class="svg-elem-58"></path>
<path d="M347.842 488.877V512H484.64c15.11 0 27.36-10.353 27.36-23.123V373.259h-27.36c-75.43 0-136.798 51.866-136.798 115.618z" fill="none" stroke="#fff" data-original="#000000" id="chest_path8" stroke-width="1.677" class="svg-elem-59"></path>
<path d="M347.842 488.877V512H484.64c15.11 0 27.36-10.353 27.36-23.123V373.259h-27.36c-75.43 0-136.798 51.866-136.798 115.618z" fill="none" stroke="#fff" data-original="#000000" id="chest_path8" stroke-width="1.677" class="svg-elem-60"></path>
<path d="M347.842 488.877V512H484.64c15.11 0 27.36-10.353 27.36-23.123V373.259h-27.36c-75.43 0-136.798 51.866-136.798 115.618z" fill="none" stroke="#fff" data-original="#000000" id="chest_path8" stroke-width="1.677" class="svg-elem-61"></path>
<path d="M347.842 488.877V512H484.64c15.11 0 27.36-10.353 27.36-23.123V373.259h-27.36c-75.43 0-136.798 51.866-136.798 115.618z" fill="none" stroke="#fff" data-original="#000000" id="chest_path8" stroke-width="1.677" class="svg-elem-62"></path>
<path d="M347.842 488.877V512H484.64c15.11 0 27.36-10.353 27.36-23.123V373.259h-27.36c-75.43 0-136.798 51.866-136.798 115.618z" fill="none" stroke="#fff" data-original="#000000" id="chest_path8" stroke-width="1.677" class="svg-elem-63"></path>
<path d="M347.842 488.877V512H484.64c15.11 0 27.36-10.353 27.36-23.123V373.259h-27.36c-75.43 0-136.798 51.866-136.798 115.618z" fill="none" stroke="#fff" data-original="#000000" id="chest_path8" stroke-width="1.677" class="svg-elem-64"></path>
<path d="M347.842 488.877V512H484.64c15.11 0 27.36-10.353 27.36-23.123V373.259h-27.36c-75.43 0-136.798 51.866-136.798 115.618z" fill="none" stroke="#fff" data-original="#000000" id="chest_path8" stroke-width="1.677" class="svg-elem-65"></path>
<path d="M347.842 488.877V512H484.64c15.11 0 27.36-10.353 27.36-23.123V373.259h-27.36c-75.43 0-136.798 51.866-136.798 115.618z" fill="none" stroke="#fff" data-original="#000000" id="chest_path8" stroke-width="1.677" class="svg-elem-66"></path>
<path d="M347.842 488.877V512H484.64c15.11 0 27.36-10.353 27.36-23.123V373.259h-27.36c-75.43 0-136.798 51.866-136.798 115.618z" fill="none" stroke="#fff" data-original="#000000" id="chest_path8" stroke-width="1.677" class="svg-elem-67"></path>
<path d="M347.842 488.877V512H484.64c15.11 0 27.36-10.353 27.36-23.123V373.259h-27.36c-75.43 0-136.798 51.866-136.798 115.618z" fill="none" stroke="#fff" data-original="#000000" id="chest_path8" stroke-width="1.677" class="svg-elem-68"></path>
<path d="M347.842 488.877V512H484.64c15.11 0 27.36-10.353 27.36-23.123V373.259h-27.36c-75.43 0-136.798 51.866-136.798 115.618z" fill="none" stroke="#fff" data-original="#000000" id="chest_path8" stroke-width="1.677" class="svg-elem-69"></path>
<path d="M347.842 488.877V512H484.64c15.11 0 27.36-10.353 27.36-23.123V373.259h-27.36c-75.43 0-136.798 51.866-136.798 115.618z" fill="none" stroke="#fff" data-original="#000000" id="chest_path8" stroke-width="1.677" class="svg-elem-70"></path>
<path d="M347.842 488.877V512H484.64c15.11 0 27.36-10.353 27.36-23.123V373.259h-27.36c-75.43 0-136.798 51.866-136.798 115.618z" fill="none" stroke="#fff" data-original="#000000" id="chest_path8" stroke-width="1.677" class="svg-elem-71"></path>
<path d="M347.842 488.877V512H484.64c15.11 0 27.36-10.353 27.36-23.123V373.259h-27.36c-75.43 0-136.798 51.866-136.798 115.618z" fill="none" stroke="#fff" data-original="#000000" id="chest_path8" stroke-width="1.677" class="svg-elem-72"></path>
<path d="M347.842 488.877V512H484.64c15.11 0 27.36-10.353 27.36-23.123V373.259h-27.36c-75.43 0-136.798 51.866-136.798 115.618z" fill="none" stroke="#fff" data-original="#000000" id="chest_path8" stroke-width="1.677" class="svg-elem-73"></path>
      
<path d="M301 352v-90h-90v90zm-45-60c8.284 0 15 6.716 15 15 0 8.284-6.716 15-15 15-8.284 0-15-6.716-15-15 0-8.284 6.716-15 15-15z" fill="none" stroke="#fff" data-original="#000000" id="chest_path10" class="svg-elem-74"></path>
<path d="M301 352v-90h-90v90zm-45-60c8.284 0 15 6.716 15 15 0 8.284-6.716 15-15 15-8.284 0-15-6.716-15-15 0-8.284 6.716-15 15-15z" fill="none" stroke="#fff" data-original="#000000" id="chest_path10" class="svg-elem-75"></path>
<path d="M301 352v-90h-90v90zm-45-60c8.284 0 15 6.716 15 15 0 8.284-6.716 15-15 15-8.284 0-15-6.716-15-15 0-8.284 6.716-15 15-15z" fill="none" stroke="#fff" data-original="#000000" id="chest_path10" class="svg-elem-76"></path>
<path d="M301 352v-90h-90v90zm-45-60c8.284 0 15 6.716 15 15 0 8.284-6.716 15-15 15-8.284 0-15-6.716-15-15 0-8.284 6.716-15 15-15z" fill="none" stroke="#fff" data-original="#000000" id="chest_path10" class="svg-elem-77"></path>
<path d="M301 352v-90h-90v90zm-45-60c8.284 0 15 6.716 15 15 0 8.284-6.716 15-15 15-8.284 0-15-6.716-15-15 0-8.284 6.716-15 15-15z" fill="none" stroke="#fff" data-original="#000000" id="chest_path10" class="svg-elem-78"></path>
<path d="M301 352v-90h-90v90zm-45-60c8.284 0 15 6.716 15 15 0 8.284-6.716 15-15 15-8.284 0-15-6.716-15-15 0-8.284 6.716-15 15-15z" fill="none" stroke="#fff" data-original="#000000" id="chest_path10" class="svg-elem-79"></path>
<path d="M301 352v-90h-90v90zm-45-60c8.284 0 15 6.716 15 15 0 8.284-6.716 15-15 15-8.284 0-15-6.716-15-15 0-8.284 6.716-15 15-15z" fill="none" stroke="#fff" data-original="#000000" id="chest_path10" class="svg-elem-80"></path>
<path d="M301 352v-90h-90v90zm-45-60c8.284 0 15 6.716 15 15 0 8.284-6.716 15-15 15-8.284 0-15-6.716-15-15 0-8.284 6.716-15 15-15z" fill="none" stroke="#fff" data-original="#000000" id="chest_path10" class="svg-elem-81"></path>
<path d="M301 352v-90h-90v90zm-45-60c8.284 0 15 6.716 15 15 0 8.284-6.716 15-15 15-8.284 0-15-6.716-15-15 0-8.284 6.716-15 15-15z" fill="none" stroke="#fff" data-original="#000000" id="chest_path10" class="svg-elem-82"></path>
<path d="M301 352v-90h-90v90zm-45-60c8.284 0 15 6.716 15 15 0 8.284-6.716 15-15 15-8.284 0-15-6.716-15-15 0-8.284 6.716-15 15-15z" fill="none" stroke="#fff" data-original="#000000" id="chest_path10" class="svg-elem-83"></path>
<path d="M301 352v-90h-90v90zm-45-60c8.284 0 15 6.716 15 15 0 8.284-6.716 15-15 15-8.284 0-15-6.716-15-15 0-8.284 6.716-15 15-15z" fill="none" stroke="#fff" data-original="#000000" id="chest_path10" class="svg-elem-84"></path>
<path d="M301 352v-90h-90v90zm-45-60c8.284 0 15 6.716 15 15 0 8.284-6.716 15-15 15-8.284 0-15-6.716-15-15 0-8.284 6.716-15 15-15z" fill="none" stroke="#fff" data-original="#000000" id="chest_path10" class="svg-elem-85"></path>
<path d="M301 352v-90h-90v90zm-45-60c8.284 0 15 6.716 15 15 0 8.284-6.716 15-15 15-8.284 0-15-6.716-15-15 0-8.284 6.716-15 15-15z" fill="none" stroke="#fff" data-original="#000000" id="chest_path10" class="svg-elem-86"></path>
<path d="M301 352v-90h-90v90zm-45-60c8.284 0 15 6.716 15 15 0 8.284-6.716 15-15 15-8.284 0-15-6.716-15-15 0-8.284 6.716-15 15-15z" fill="none" stroke="#fff" data-original="#000000" id="chest_path10" class="svg-elem-87"></path>
<path d="M301 352v-90h-90v90zm-45-60c8.284 0 15 6.716 15 15 0 8.284-6.716 15-15 15-8.284 0-15-6.716-15-15 0-8.284 6.716-15 15-15z" fill="none" stroke="#fff" data-original="#000000" id="chest_path10" class="svg-elem-88"></path>
<path d="M301 352v-90h-90v90zm-45-60c8.284 0 15 6.716 15 15 0 8.284-6.716 15-15 15-8.284 0-15-6.716-15-15 0-8.284 6.716-15 15-15z" fill="none" stroke="#fff" data-original="#000000" id="chest_path10" class="svg-elem-89"></path>
<path d="M301 352v-90h-90v90zm-45-60c8.284 0 15 6.716 15 15 0 8.284-6.716 15-15 15-8.284 0-15-6.716-15-15 0-8.284 6.716-15 15-15z" fill="none" stroke="#fff" data-original="#000000" id="chest_path10" class="svg-elem-90"></path>
<path d="M301 352v-90h-90v90zm-45-60c8.284 0 15 6.716 15 15 0 8.284-6.716 15-15 15-8.284 0-15-6.716-15-15 0-8.284 6.716-15 15-15z" fill="none" stroke="#fff" data-original="#000000" id="chest_path10" class="svg-elem-91"></path>
<path d="M301 352v-90h-90v90zm-45-60c8.284 0 15 6.716 15 15 0 8.284-6.716 15-15 15-8.284 0-15-6.716-15-15 0-8.284 6.716-15 15-15z" fill="none" stroke="#fff" data-original="#000000" id="chest_path10" class="svg-elem-92"></path>
<path d="M301 352v-90h-90v90zm-45-60c8.284 0 15 6.716 15 15 0 8.284-6.716 15-15 15-8.284 0-15-6.716-15-15 0-8.284 6.716-15 15-15z" fill="none" stroke="#fff" data-original="#000000" id="chest_path10" class="svg-elem-93"></path>
<path d="M301 352v-90h-90v90zm-45-60c8.284 0 15 6.716 15 15 0 8.284-6.716 15-15 15-8.284 0-15-6.716-15-15 0-8.284 6.716-15 15-15z" fill="none" stroke="#fff" data-original="#000000" id="chest_path10" class="svg-elem-94"></path>
<path d="M301 352v-90h-90v90zm-45-60c8.284 0 15 6.716 15 15 0 8.284-6.716 15-15 15-8.284 0-15-6.716-15-15 0-8.284 6.716-15 15-15z" fill="none" stroke="#fff" data-original="#000000" id="chest_path10" class="svg-elem-95"></path>
<path d="M301 352v-90h-90v90zm-45-60c8.284 0 15 6.716 15 15 0 8.284-6.716 15-15 15-8.284 0-15-6.716-15-15 0-8.284 6.716-15 15-15z" fill="none" stroke="#fff" data-original="#000000" id="chest_path10" class="svg-elem-96"></path>
<path d="M301 352v-90h-90v90zm-45-60c8.284 0 15 6.716 15 15 0 8.284-6.716 15-15 15-8.284 0-15-6.716-15-15 0-8.284 6.716-15 15-15z" fill="none" stroke="#fff" data-original="#000000" id="chest_path10" class="svg-elem-97"></path>
      
<g id="chest_g20">
        <g id="chest_g16">
          
<path d="M44.597 232h422.806L512 105H0z" fill="none" stroke="#fff" data-original="#000000" id="chest_path14" class="svg-elem-98"></path>
<path d="M44.597 232h422.806L512 105H0z" fill="none" stroke="#fff" data-original="#000000" id="chest_path14" class="svg-elem-99"></path>
<path d="M44.597 232h422.806L512 105H0z" fill="none" stroke="#fff" data-original="#000000" id="chest_path14" class="svg-elem-100"></path>
<path d="M44.597 232h422.806L512 105H0z" fill="none" stroke="#fff" data-original="#000000" id="chest_path14" class="svg-elem-101"></path>
<path d="M44.597 232h422.806L512 105H0z" fill="none" stroke="#fff" data-original="#000000" id="chest_path14" class="svg-elem-102"></path>
<path d="M44.597 232h422.806L512 105H0z" fill="none" stroke="#fff" data-original="#000000" id="chest_path14" class="svg-elem-103"></path>
<path d="M44.597 232h422.806L512 105H0z" fill="none" stroke="#fff" data-original="#000000" id="chest_path14" class="svg-elem-104"></path>
<path d="M44.597 232h422.806L512 105H0z" fill="none" stroke="#fff" data-original="#000000" id="chest_path14" class="svg-elem-105"></path>
<path d="M44.597 232h422.806L512 105H0z" fill="none" stroke="#fff" data-original="#000000" id="chest_path14" class="svg-elem-106"></path>
<path d="M44.597 232h422.806L512 105H0z" fill="none" stroke="#fff" data-original="#000000" id="chest_path14" class="svg-elem-107"></path>
<path d="M44.597 232h422.806L512 105H0z" fill="none" stroke="#fff" data-original="#000000" id="chest_path14" class="svg-elem-108"></path>
<path d="M44.597 232h422.806L512 105H0z" fill="none" stroke="#fff" data-original="#000000" id="chest_path14" class="svg-elem-109"></path>
<path d="M44.597 232h422.806L512 105H0z" fill="none" stroke="#fff" data-original="#000000" id="chest_path14" class="svg-elem-110"></path>
<path d="M44.597 232h422.806L512 105H0z" fill="none" stroke="#fff" data-original="#000000" id="chest_path14" class="svg-elem-111"></path>
<path d="M44.597 232h422.806L512 105H0z" fill="none" stroke="#fff" data-original="#000000" id="chest_path14" class="svg-elem-112"></path>
<path d="M44.597 232h422.806L512 105H0z" fill="none" stroke="#fff" data-original="#000000" id="chest_path14" class="svg-elem-113"></path>
<path d="M44.597 232h422.806L512 105H0z" fill="none" stroke="#fff" data-original="#000000" id="chest_path14" class="svg-elem-114"></path>
<path d="M44.597 232h422.806L512 105H0z" fill="none" stroke="#fff" data-original="#000000" id="chest_path14" class="svg-elem-115"></path>
<path d="M44.597 232h422.806L512 105H0z" fill="none" stroke="#fff" data-original="#000000" id="chest_path14" class="svg-elem-116"></path>
<path d="M44.597 232h422.806L512 105H0z" fill="none" stroke="#fff" data-original="#000000" id="chest_path14" class="svg-elem-117"></path>
<path d="M44.597 232h422.806L512 105H0z" fill="none" stroke="#fff" data-original="#000000" id="chest_path14" class="svg-elem-118"></path>
<path d="M44.597 232h422.806L512 105H0z" fill="none" stroke="#fff" data-original="#000000" id="chest_path14" class="svg-elem-119"></path>
<path d="M44.597 232h422.806L512 105H0z" fill="none" stroke="#fff" data-original="#000000" id="chest_path14" class="svg-elem-120"></path>
<path d="M44.597 232h422.806L512 105H0z" fill="none" stroke="#fff" data-original="#000000" id="chest_path14" class="svg-elem-121"></path>
        
</g>
        
<path d="M331 367c0 8.284-6.716 15-15 15H196c-8.284 0-15-6.716-15-15V262H15c-8.284 0-15 6.716-15 15v115h15c57.99 0 105 47.01 105 105v15h272v-15c0-57.99 47.01-105 105-105h15V277c0-8.284-6.716-15-15-15H331z" fill="none" stroke="#fff" data-original="#000000" id="chest_path18" class="svg-elem-122"></path>
<path d="M331 367c0 8.284-6.716 15-15 15H196c-8.284 0-15-6.716-15-15V262H15c-8.284 0-15 6.716-15 15v115h15c57.99 0 105 47.01 105 105v15h272v-15c0-57.99 47.01-105 105-105h15V277c0-8.284-6.716-15-15-15H331z" fill="none" stroke="#fff" data-original="#000000" id="chest_path18" class="svg-elem-123"></path>
<path d="M331 367c0 8.284-6.716 15-15 15H196c-8.284 0-15-6.716-15-15V262H15c-8.284 0-15 6.716-15 15v115h15c57.99 0 105 47.01 105 105v15h272v-15c0-57.99 47.01-105 105-105h15V277c0-8.284-6.716-15-15-15H331z" fill="none" stroke="#fff" data-original="#000000" id="chest_path18" class="svg-elem-124"></path>
<path d="M331 367c0 8.284-6.716 15-15 15H196c-8.284 0-15-6.716-15-15V262H15c-8.284 0-15 6.716-15 15v115h15c57.99 0 105 47.01 105 105v15h272v-15c0-57.99 47.01-105 105-105h15V277c0-8.284-6.716-15-15-15H331z" fill="none" stroke="#fff" data-original="#000000" id="chest_path18" class="svg-elem-125"></path>
<path d="M331 367c0 8.284-6.716 15-15 15H196c-8.284 0-15-6.716-15-15V262H15c-8.284 0-15 6.716-15 15v115h15c57.99 0 105 47.01 105 105v15h272v-15c0-57.99 47.01-105 105-105h15V277c0-8.284-6.716-15-15-15H331z" fill="none" stroke="#fff" data-original="#000000" id="chest_path18" class="svg-elem-126"></path>
<path d="M331 367c0 8.284-6.716 15-15 15H196c-8.284 0-15-6.716-15-15V262H15c-8.284 0-15 6.716-15 15v115h15c57.99 0 105 47.01 105 105v15h272v-15c0-57.99 47.01-105 105-105h15V277c0-8.284-6.716-15-15-15H331z" fill="none" stroke="#fff" data-original="#000000" id="chest_path18" class="svg-elem-127"></path>
<path d="M331 367c0 8.284-6.716 15-15 15H196c-8.284 0-15-6.716-15-15V262H15c-8.284 0-15 6.716-15 15v115h15c57.99 0 105 47.01 105 105v15h272v-15c0-57.99 47.01-105 105-105h15V277c0-8.284-6.716-15-15-15H331z" fill="none" stroke="#fff" data-original="#000000" id="chest_path18" class="svg-elem-128"></path>
<path d="M331 367c0 8.284-6.716 15-15 15H196c-8.284 0-15-6.716-15-15V262H15c-8.284 0-15 6.716-15 15v115h15c57.99 0 105 47.01 105 105v15h272v-15c0-57.99 47.01-105 105-105h15V277c0-8.284-6.716-15-15-15H331z" fill="none" stroke="#fff" data-original="#000000" id="chest_path18" class="svg-elem-129"></path>
<path d="M331 367c0 8.284-6.716 15-15 15H196c-8.284 0-15-6.716-15-15V262H15c-8.284 0-15 6.716-15 15v115h15c57.99 0 105 47.01 105 105v15h272v-15c0-57.99 47.01-105 105-105h15V277c0-8.284-6.716-15-15-15H331z" fill="none" stroke="#fff" data-original="#000000" id="chest_path18" class="svg-elem-130"></path>
<path d="M331 367c0 8.284-6.716 15-15 15H196c-8.284 0-15-6.716-15-15V262H15c-8.284 0-15 6.716-15 15v115h15c57.99 0 105 47.01 105 105v15h272v-15c0-57.99 47.01-105 105-105h15V277c0-8.284-6.716-15-15-15H331z" fill="none" stroke="#fff" data-original="#000000" id="chest_path18" class="svg-elem-131"></path>
<path d="M331 367c0 8.284-6.716 15-15 15H196c-8.284 0-15-6.716-15-15V262H15c-8.284 0-15 6.716-15 15v115h15c57.99 0 105 47.01 105 105v15h272v-15c0-57.99 47.01-105 105-105h15V277c0-8.284-6.716-15-15-15H331z" fill="none" stroke="#fff" data-original="#000000" id="chest_path18" class="svg-elem-132"></path>
<path d="M331 367c0 8.284-6.716 15-15 15H196c-8.284 0-15-6.716-15-15V262H15c-8.284 0-15 6.716-15 15v115h15c57.99 0 105 47.01 105 105v15h272v-15c0-57.99 47.01-105 105-105h15V277c0-8.284-6.716-15-15-15H331z" fill="none" stroke="#fff" data-original="#000000" id="chest_path18" class="svg-elem-133"></path>
<path d="M331 367c0 8.284-6.716 15-15 15H196c-8.284 0-15-6.716-15-15V262H15c-8.284 0-15 6.716-15 15v115h15c57.99 0 105 47.01 105 105v15h272v-15c0-57.99 47.01-105 105-105h15V277c0-8.284-6.716-15-15-15H331z" fill="none" stroke="#fff" data-original="#000000" id="chest_path18" class="svg-elem-134"></path>
<path d="M331 367c0 8.284-6.716 15-15 15H196c-8.284 0-15-6.716-15-15V262H15c-8.284 0-15 6.716-15 15v115h15c57.99 0 105 47.01 105 105v15h272v-15c0-57.99 47.01-105 105-105h15V277c0-8.284-6.716-15-15-15H331z" fill="none" stroke="#fff" data-original="#000000" id="chest_path18" class="svg-elem-135"></path>
<path d="M331 367c0 8.284-6.716 15-15 15H196c-8.284 0-15-6.716-15-15V262H15c-8.284 0-15 6.716-15 15v115h15c57.99 0 105 47.01 105 105v15h272v-15c0-57.99 47.01-105 105-105h15V277c0-8.284-6.716-15-15-15H331z" fill="none" stroke="#fff" data-original="#000000" id="chest_path18" class="svg-elem-136"></path>
<path d="M331 367c0 8.284-6.716 15-15 15H196c-8.284 0-15-6.716-15-15V262H15c-8.284 0-15 6.716-15 15v115h15c57.99 0 105 47.01 105 105v15h272v-15c0-57.99 47.01-105 105-105h15V277c0-8.284-6.716-15-15-15H331z" fill="none" stroke="#fff" data-original="#000000" id="chest_path18" class="svg-elem-137"></path>
<path d="M331 367c0 8.284-6.716 15-15 15H196c-8.284 0-15-6.716-15-15V262H15c-8.284 0-15 6.716-15 15v115h15c57.99 0 105 47.01 105 105v15h272v-15c0-57.99 47.01-105 105-105h15V277c0-8.284-6.716-15-15-15H331z" fill="none" stroke="#fff" data-original="#000000" id="chest_path18" class="svg-elem-138"></path>
<path d="M331 367c0 8.284-6.716 15-15 15H196c-8.284 0-15-6.716-15-15V262H15c-8.284 0-15 6.716-15 15v115h15c57.99 0 105 47.01 105 105v15h272v-15c0-57.99 47.01-105 105-105h15V277c0-8.284-6.716-15-15-15H331z" fill="none" stroke="#fff" data-original="#000000" id="chest_path18" class="svg-elem-139"></path>
<path d="M331 367c0 8.284-6.716 15-15 15H196c-8.284 0-15-6.716-15-15V262H15c-8.284 0-15 6.716-15 15v115h15c57.99 0 105 47.01 105 105v15h272v-15c0-57.99 47.01-105 105-105h15V277c0-8.284-6.716-15-15-15H331z" fill="none" stroke="#fff" data-original="#000000" id="chest_path18" class="svg-elem-140"></path>
<path d="M331 367c0 8.284-6.716 15-15 15H196c-8.284 0-15-6.716-15-15V262H15c-8.284 0-15 6.716-15 15v115h15c57.99 0 105 47.01 105 105v15h272v-15c0-57.99 47.01-105 105-105h15V277c0-8.284-6.716-15-15-15H331z" fill="none" stroke="#fff" data-original="#000000" id="chest_path18" class="svg-elem-141"></path>
<path d="M331 367c0 8.284-6.716 15-15 15H196c-8.284 0-15-6.716-15-15V262H15c-8.284 0-15 6.716-15 15v115h15c57.99 0 105 47.01 105 105v15h272v-15c0-57.99 47.01-105 105-105h15V277c0-8.284-6.716-15-15-15H331z" fill="none" stroke="#fff" data-original="#000000" id="chest_path18" class="svg-elem-142"></path>
<path d="M331 367c0 8.284-6.716 15-15 15H196c-8.284 0-15-6.716-15-15V262H15c-8.284 0-15 6.716-15 15v115h15c57.99 0 105 47.01 105 105v15h272v-15c0-57.99 47.01-105 105-105h15V277c0-8.284-6.716-15-15-15H331z" fill="none" stroke="#fff" data-original="#000000" id="chest_path18" class="svg-elem-143"></path>
<path d="M331 367c0 8.284-6.716 15-15 15H196c-8.284 0-15-6.716-15-15V262H15c-8.284 0-15 6.716-15 15v115h15c57.99 0 105 47.01 105 105v15h272v-15c0-57.99 47.01-105 105-105h15V277c0-8.284-6.716-15-15-15H331z" fill="none" stroke="#fff" data-original="#000000" id="chest_path18" class="svg-elem-144"></path>
<path d="M331 367c0 8.284-6.716 15-15 15H196c-8.284 0-15-6.716-15-15V262H15c-8.284 0-15 6.716-15 15v115h15c57.99 0 105 47.01 105 105v15h272v-15c0-57.99 47.01-105 105-105h15V277c0-8.284-6.716-15-15-15H331z" fill="none" stroke="#fff" data-original="#000000" id="chest_path18" class="svg-elem-145"></path>
      
</g>
    </svg>