<svg xmlns="http://www.w3.org/2000/svg" fill="none" stroke="#fff" stroke-width="1.038" stroke-linecap="square" stroke-linejoin="round" id="prefix__home" width="26" height="25"><style>@-webkit-keyframes animate-svg-stroke-1{0%,to{stroke-dashoffset:100%;stroke-dasharray:297.53623962402344px}50%{stroke-dashoffset:0;stroke-dasharray:100%}}@keyframes animate-svg-stroke-1{0%,to{stroke-dashoffset:100%;stroke-dasharray:297.53623962402344px}50%{stroke-dashoffset:0;stroke-dasharray:100%}}</style><path d="M18.823 9.288l-8.269-8.103A.643.643 0 0010.1 1a.652.652 0 00-.454.185L1.378 9.288a1.25 1.25 0 00-.377.892c0 .695.576 1.26 1.284 1.26h.871v5.782c0 .348.287.63.643.63h5.017v-4.41h2.248v4.41h5.338a.636.636 0 00.643-.63V11.44h.871c.341 0 .669-.133.91-.37a1.244 1.244 0 00-.003-1.782z" fill="#fff" style="-webkit-animation:animate-svg-stroke-1 3s cubic-bezier(.68,-.55,.265,1.55) 0s infinite both;animation:animate-svg-stroke-1 3s cubic-bezier(.68,-.55,.265,1.55) 0s infinite both;width:30.07px;height:25.99px;max-width:28.07px;max-height:25.99px;top:100px;transform-origin:0 0;margin:0 auto" fill-opacity="0" stroke-width=".7266"/></svg>