<svg
  xmlns="http://www.w3.org/2000/svg"
  fill="none"
  stroke="#fff"
  stroke-width="1.038"
  stroke-linecap="square"
  stroke-linejoin="round"
  viewBox="0 0 29 28"
  id="home"
  width="26"
  height="25"
>
  <style>
    @-webkit-keyframes animate-svg-stroke-1 {
      0%,
      100% {
        stroke-dashoffset: 100%;
        stroke-dasharray: 297.53623962402344px;
      }
      50% {
        stroke-dashoffset: 0;
        stroke-dasharray: 100%;
      }
    }
    @keyframes animate-svg-stroke-1 {
      0%,
      100% {
        stroke-dashoffset: 100%;
        stroke-dasharray: 297.53623962402344px;
      }
      50% {
        stroke-dashoffset: 0;
        stroke-dasharray: 100%;
      }
    }
    .svg-elem-1 {
      fill-opacity: 0 !important;
      stroke-opacity: 1 !important;
      stroke:#fff !important;
      stroke-width: 2.038 !important;
      -webkit-animation: animate-svg-stroke-1 3s
        cubic-bezier(0.68, -0.55, 0.265, 1.55) 0s infinite both !important;
      animation: animate-svg-stroke-1 3s cubic-bezier(0.68, -0.55, 0.265, 1.55)
        0s infinite both !important;
    }
  </style>
  <path
    d="M25.462 11.84L13.649.264A.918.918 0 0 0 13 0a.931.931 0 0 0-.649.264L.54 11.84c-.344.337-.539.796-.539 1.274 0 .993.823 1.8 1.835 1.8H3.08v8.26c0 .498.41.9.918.9h7.167v-6.3h3.212v6.3h7.626a.908.908 0 0 0 .918-.9v-8.26h1.245c.487 0 .955-.189 1.299-.529a1.777 1.777 0 0 0-.003-2.545z"
    fill="#fff"
    class="svg-elem-1"
  ></path>
</svg>
