<svg class="page showed" xmlns="http://www.w3.org/2000/svg" xmlns:xlink="http://www.w3.org/1999/xlink" height="100%" width="100%" data-page-width="793.710" data-page-height="1122.533827198" style="position: absolute;left: 0; top:0; right: 0; bottom:0; ">
        <g class="content" transform="matrix(0.364354 0 0 0.364354 478.904 10)">
            <g class="layers">
                <g class="layer" data-layer-name="first layer" data-layer-color="#007fff" active="">
                <path d="M 362.667 0 L 64 0 L 0 128 L 0 170.667 C 0 194.13400000000001 19.2 213.334 42.667 213.334 C 66.134 213.334 85.334 194.13400000000001 85.334 170.667 C 85.334 194.13400000000001 104.534 213.334 128.001 213.334 C 151.46800000000002 213.334 170.668 194.13400000000001 170.668 170.667 C 170.668 194.13400000000001 189.868 213.334 213.335 213.334 C 236.80200000000002 213.334 256 194.133 256 170.667 C 256 194.13400000000001 275.2 213.334 298.66700000000003 213.334 C 322.134 213.334 341.33400000000006 194.13400000000001 341.33400000000006 170.667 C 341.33400000000006 194.13400000000001 360.53400000000005 213.334 384.0010000000001 213.334 C 407.46800000000013 213.334 426.6680000000001 194.13400000000001 426.6680000000001 170.667 L 426.6680000000001 128 L 362.667 0 Z M 384 256 C 369.067 256 354.133 251.733 341.33299999999997 245.333 C 328.53299999999996 251.733 313.59999999999997 256 298.66599999999994 256 C 283.7319999999999 256 268.8 251.733 256 245.333 C 243.2 251.733 228.267 256 213.333 256 C 198.399 256 183.466 251.733 170.666 245.333 C 157.867 251.733 142.933 256 128 256 C 113.06700000000001 256 98.133 251.733 85.333 245.333 C 72.533 251.733 57.6 256 42.667 256 C 36.267 256 27.734 253.867 21.334000000000003 253.867 L 21.334000000000003 426.66700000000003 L 170.667 426.66700000000003 L 170.667 320 L 256 320 L 256 426.66700000000003 L 405.33299999999997 426.66700000000003 L 405.33299999999997 253.86700000000002 C 398.933 253.86700000000002 390.4 256 384 256 Z M 128 384 L 64 384 L 64 320 L 128 320 L 128 384 Z M 362.66700000000003 384 L 298.66700000000003 384 L 298.66700000000003 320 L 362.66700000000003 320 L 362.66700000000003 384 Z" fill="none" stroke="#fff" stroke-width="4.038" stroke-linecap="square" stroke-linejoin="round" transform="matrix(1 0 0 1 183.521 347.933)" class="" paint-order="stroke fill markers"></path></g>
            </g>
        </g>
    </svg>