<svg xmlns="http://www.w3.org/2000/svg" width="431" height="431" style="">
  <rect
    id="backgroundrect"
    width="100%"
    height="100%"
    x="0"
    y="0"
    fill="none"
    stroke="none"
  />
  <g class="currentLayer" style="">
    <title>Layer 1</title>
    <path
      fill="none"
      stroke="#fff"
      stroke-width="4.038"
      stroke-linecap="square"
      stroke-linejoin="round"
      d="M364.68600002479553,2.019000024795531 H66.01900002479556 L2.019000024795531,130.01900002479556 v42.667 c0,23.467 19.2,42.667 42.667,42.667 c23.467,0 42.667,-19.2 42.667,-42.667 c0,23.467 19.2,42.667 42.667,42.667 s42.667,-19.2 42.667,-42.667 c0,23.467 19.2,42.667 42.667,42.667 S258.01900002479556,196.15200002479557 258.01900002479556,172.68600002479556 c0,23.467 19.2,42.667 42.667,42.667 c23.467,0 42.667,-19.2 42.667,-42.667 c0,23.467 19.2,42.667 42.667,42.667 s42.667,-19.2 42.667,-42.667 V130.01900002479556 L364.68600002479553,2.019000024795531 zM386.01900002479556,258.01900002479556 c-14.933,0 -29.867,-4.267 -42.667,-10.667 c-12.8,6.4 -27.733,10.667 -42.667,10.667 S270.81900002479557,253.75200002479556 258.01900002479556,247.35200002479556 c-12.8,6.4 -27.733,10.667 -42.667,10.667 s-29.867,-4.267 -42.667,-10.667 C159.88600002479555,253.75200002479556 144.95200002479555,258.01900002479556 130.01900002479556,258.01900002479556 c-14.933,0 -29.867,-4.267 -42.667,-10.667 C74.55200002479555,253.75200002479556 59.61900002479553,258.01900002479556 44.68600002479554,258.01900002479556 c-6.4,0 -14.933,-2.133 -21.333,-2.133 v172.8 h149.333 V322.01900002479556 H258.01900002479556 v106.667 h149.333 v-172.8 c-6.4,0 -14.933,2.133 -21.333,2.133 zM130.01900002479556,386.01900002479556 H66.01900002479556 v-64 h64 v64 zm234.667,0 h-64 v-64 h64 v64 z"
      data-original="#FFFFFF"
      class="svg-elem-1"
      id="svg_1"
    />
    <path
      fill="none"
      stroke="#fff"
      stroke-width="4.038"
      stroke-linecap="square"
      stroke-linejoin="round"
      d="M364.68600002479553,2.019000024795531 H66.01900002479556 L2.019000024795531,130.01900002479556 v42.667 c0,23.467 19.2,42.667 42.667,42.667 c23.467,0 42.667,-19.2 42.667,-42.667 c0,23.467 19.2,42.667 42.667,42.667 s42.667,-19.2 42.667,-42.667 c0,23.467 19.2,42.667 42.667,42.667 S258.01900002479556,196.15200002479557 258.01900002479556,172.68600002479556 c0,23.467 19.2,42.667 42.667,42.667 c23.467,0 42.667,-19.2 42.667,-42.667 c0,23.467 19.2,42.667 42.667,42.667 s42.667,-19.2 42.667,-42.667 V130.01900002479556 L364.68600002479553,2.019000024795531 zM386.01900002479556,258.01900002479556 c-14.933,0 -29.867,-4.267 -42.667,-10.667 c-12.8,6.4 -27.733,10.667 -42.667,10.667 S270.81900002479557,253.75200002479556 258.01900002479556,247.35200002479556 c-12.8,6.4 -27.733,10.667 -42.667,10.667 s-29.867,-4.267 -42.667,-10.667 C159.88600002479555,253.75200002479556 144.95200002479555,258.01900002479556 130.01900002479556,258.01900002479556 c-14.933,0 -29.867,-4.267 -42.667,-10.667 C74.55200002479555,253.75200002479556 59.61900002479553,258.01900002479556 44.68600002479554,258.01900002479556 c-6.4,0 -14.933,-2.133 -21.333,-2.133 v172.8 h149.333 V322.01900002479556 H258.01900002479556 v106.667 h149.333 v-172.8 c-6.4,0 -14.933,2.133 -21.333,2.133 zM130.01900002479556,386.01900002479556 H66.01900002479556 v-64 h64 v64 zm234.667,0 h-64 v-64 h64 v64 z"
      data-original="#FFFFFF"
      class="svg-elem-1"
      id="svg_1"
    />
    <path
      fill="none"
      stroke="#fff"
      stroke-width="4.038"
      stroke-linecap="square"
      stroke-linejoin="round"
      d="M364.68600002479553,2.019000024795531 H66.01900002479556 L2.019000024795531,130.01900002479556 v42.667 c0,23.467 19.2,42.667 42.667,42.667 c23.467,0 42.667,-19.2 42.667,-42.667 c0,23.467 19.2,42.667 42.667,42.667 s42.667,-19.2 42.667,-42.667 c0,23.467 19.2,42.667 42.667,42.667 S258.01900002479556,196.15200002479557 258.01900002479556,172.68600002479556 c0,23.467 19.2,42.667 42.667,42.667 c23.467,0 42.667,-19.2 42.667,-42.667 c0,23.467 19.2,42.667 42.667,42.667 s42.667,-19.2 42.667,-42.667 V130.01900002479556 L364.68600002479553,2.019000024795531 zM386.01900002479556,258.01900002479556 c-14.933,0 -29.867,-4.267 -42.667,-10.667 c-12.8,6.4 -27.733,10.667 -42.667,10.667 S270.81900002479557,253.75200002479556 258.01900002479556,247.35200002479556 c-12.8,6.4 -27.733,10.667 -42.667,10.667 s-29.867,-4.267 -42.667,-10.667 C159.88600002479555,253.75200002479556 144.95200002479555,258.01900002479556 130.01900002479556,258.01900002479556 c-14.933,0 -29.867,-4.267 -42.667,-10.667 C74.55200002479555,253.75200002479556 59.61900002479553,258.01900002479556 44.68600002479554,258.01900002479556 c-6.4,0 -14.933,-2.133 -21.333,-2.133 v172.8 h149.333 V322.01900002479556 H258.01900002479556 v106.667 h149.333 v-172.8 c-6.4,0 -14.933,2.133 -21.333,2.133 zM130.01900002479556,386.01900002479556 H66.01900002479556 v-64 h64 v64 zm234.667,0 h-64 v-64 h64 v64 z"
      data-original="#FFFFFF"
      class="svg-elem-1"
      id="svg_1"
    />
    <path
      fill="none"
      stroke="#fff"
      stroke-width="4.038"
      stroke-linecap="square"
      stroke-linejoin="round"
      d="M364.68600002479553,2.019000024795531 H66.01900002479556 L2.019000024795531,130.01900002479556 v42.667 c0,23.467 19.2,42.667 42.667,42.667 c23.467,0 42.667,-19.2 42.667,-42.667 c0,23.467 19.2,42.667 42.667,42.667 s42.667,-19.2 42.667,-42.667 c0,23.467 19.2,42.667 42.667,42.667 S258.01900002479556,196.15200002479557 258.01900002479556,172.68600002479556 c0,23.467 19.2,42.667 42.667,42.667 c23.467,0 42.667,-19.2 42.667,-42.667 c0,23.467 19.2,42.667 42.667,42.667 s42.667,-19.2 42.667,-42.667 V130.01900002479556 L364.68600002479553,2.019000024795531 zM386.01900002479556,258.01900002479556 c-14.933,0 -29.867,-4.267 -42.667,-10.667 c-12.8,6.4 -27.733,10.667 -42.667,10.667 S270.81900002479557,253.75200002479556 258.01900002479556,247.35200002479556 c-12.8,6.4 -27.733,10.667 -42.667,10.667 s-29.867,-4.267 -42.667,-10.667 C159.88600002479555,253.75200002479556 144.95200002479555,258.01900002479556 130.01900002479556,258.01900002479556 c-14.933,0 -29.867,-4.267 -42.667,-10.667 C74.55200002479555,253.75200002479556 59.61900002479553,258.01900002479556 44.68600002479554,258.01900002479556 c-6.4,0 -14.933,-2.133 -21.333,-2.133 v172.8 h149.333 V322.01900002479556 H258.01900002479556 v106.667 h149.333 v-172.8 c-6.4,0 -14.933,2.133 -21.333,2.133 zM130.01900002479556,386.01900002479556 H66.01900002479556 v-64 h64 v64 zm234.667,0 h-64 v-64 h64 v64 z"
      data-original="#FFFFFF"
      class="svg-elem-1"
      id="svg_1"
    />
    <path
      fill="none"
      stroke="#fff"
      stroke-width="4.038"
      stroke-linecap="square"
      stroke-linejoin="round"
      d="M364.68600002479553,2.019000024795531 H66.01900002479556 L2.019000024795531,130.01900002479556 v42.667 c0,23.467 19.2,42.667 42.667,42.667 c23.467,0 42.667,-19.2 42.667,-42.667 c0,23.467 19.2,42.667 42.667,42.667 s42.667,-19.2 42.667,-42.667 c0,23.467 19.2,42.667 42.667,42.667 S258.01900002479556,196.15200002479557 258.01900002479556,172.68600002479556 c0,23.467 19.2,42.667 42.667,42.667 c23.467,0 42.667,-19.2 42.667,-42.667 c0,23.467 19.2,42.667 42.667,42.667 s42.667,-19.2 42.667,-42.667 V130.01900002479556 L364.68600002479553,2.019000024795531 zM386.01900002479556,258.01900002479556 c-14.933,0 -29.867,-4.267 -42.667,-10.667 c-12.8,6.4 -27.733,10.667 -42.667,10.667 S270.81900002479557,253.75200002479556 258.01900002479556,247.35200002479556 c-12.8,6.4 -27.733,10.667 -42.667,10.667 s-29.867,-4.267 -42.667,-10.667 C159.88600002479555,253.75200002479556 144.95200002479555,258.01900002479556 130.01900002479556,258.01900002479556 c-14.933,0 -29.867,-4.267 -42.667,-10.667 C74.55200002479555,253.75200002479556 59.61900002479553,258.01900002479556 44.68600002479554,258.01900002479556 c-6.4,0 -14.933,-2.133 -21.333,-2.133 v172.8 h149.333 V322.01900002479556 H258.01900002479556 v106.667 h149.333 v-172.8 c-6.4,0 -14.933,2.133 -21.333,2.133 zM130.01900002479556,386.01900002479556 H66.01900002479556 v-64 h64 v64 zm234.667,0 h-64 v-64 h64 v64 z"
      data-original="#FFFFFF"
      class="svg-elem-1"
      id="svg_1"
    />
  </g>
</svg>
