<svg xmlns="http://www.w3.org/2000/svg" width="100%" height="100%" viewBox="0 0 100 100" id="server">
<g id="server_g9" transform="translate(0 10.938)">
<script id="server_script2"></script>
<g id="server_Layer2">
<path d="M90.553 62.499a9.375 9.375 0 0 0-9.375-9.375H18.87a9.375 9.375 0 0 0-9.375 9.375v15.626A9.375 9.375 0 0 0 18.87 87.5h62.308a9.375 9.375 0 0 0 9.375-9.375zm-63.957 3.125a4.69 4.69 0 0 1 4.688 4.688 4.69 4.69 0 0 1-4.688 4.687 4.689 4.689 0 0 1-4.687-4.687 4.69 4.69 0 0 1 4.687-4.688zm14.029 7.813h33.927a3.126 3.126 0 0 0 0-6.25H40.625a3.126 3.126 0 0 0 0 6.25z" fill="none" stroke="#fff" data-original="#000000" id="server_path4"></path>
<path d="M90.553 62.499a9.375 9.375 0 0 0-9.375-9.375H18.87a9.375 9.375 0 0 0-9.375 9.375v15.626A9.375 9.375 0 0 0 18.87 87.5h62.308a9.375 9.375 0 0 0 9.375-9.375zm-63.957 3.125a4.69 4.69 0 0 1 4.688 4.688 4.69 4.69 0 0 1-4.688 4.687 4.689 4.689 0 0 1-4.687-4.687 4.69 4.69 0 0 1 4.687-4.688zm14.029 7.813h33.927a3.126 3.126 0 0 0 0-6.25H40.625a3.126 3.126 0 0 0 0 6.25z" stroke="#fff" fill="none" data-original="#000000" id="server_path4"></path>
<path d="M90.553 62.499a9.375 9.375 0 0 0-9.375-9.375H18.87a9.375 9.375 0 0 0-9.375 9.375v15.626A9.375 9.375 0 0 0 18.87 87.5h62.308a9.375 9.375 0 0 0 9.375-9.375zm-63.957 3.125a4.69 4.69 0 0 1 4.688 4.688 4.69 4.69 0 0 1-4.688 4.687 4.689 4.689 0 0 1-4.687-4.687 4.69 4.69 0 0 1 4.687-4.688zm14.029 7.813h33.927a3.126 3.126 0 0 0 0-6.25H40.625a3.126 3.126 0 0 0 0 6.25z" stroke="#fff" fill="none" data-original="#000000" id="server_path4"></path>
<path d="M90.553 62.499a9.375 9.375 0 0 0-9.375-9.375H18.87a9.375 9.375 0 0 0-9.375 9.375v15.626A9.375 9.375 0 0 0 18.87 87.5h62.308a9.375 9.375 0 0 0 9.375-9.375zm-63.957 3.125a4.69 4.69 0 0 1 4.688 4.688 4.69 4.69 0 0 1-4.688 4.687 4.689 4.689 0 0 1-4.687-4.687 4.69 4.69 0 0 1 4.687-4.688zm14.029 7.813h33.927a3.126 3.126 0 0 0 0-6.25H40.625a3.126 3.126 0 0 0 0 6.25z" stroke="#fff" fill="none" data-original="#000000" id="server_path4"></path>
          
<path d="M90.553 21.875a9.375 9.375 0 0 0-9.375-9.375H18.496a9.375 9.375 0 0 0-9.375 9.375v15.698a9.375 9.375 0 0 0 9.375 9.375h62.682a9.375 9.375 0 0 0 9.375-9.375zm-63.957 3.162a4.69 4.69 0 0 1 4.688 4.687 4.69 4.69 0 0 1-4.688 4.688 4.69 4.69 0 0 1-4.687-4.688c0-2.587 2.1-4.687 4.687-4.687zm14.029 7.812h33.927a3.126 3.126 0 0 0 0-6.25H40.625a3.126 3.126 0 0 0 0 6.25z" stroke="#fff" fill="none" data-original="#000000" id="server_path6"></path>
<path d="M90.553 21.875a9.375 9.375 0 0 0-9.375-9.375H18.496a9.375 9.375 0 0 0-9.375 9.375v15.698a9.375 9.375 0 0 0 9.375 9.375h62.682a9.375 9.375 0 0 0 9.375-9.375zm-63.957 3.162a4.69 4.69 0 0 1 4.688 4.687 4.69 4.69 0 0 1-4.688 4.688 4.69 4.69 0 0 1-4.687-4.688c0-2.587 2.1-4.687 4.687-4.687zm14.029 7.812h33.927a3.126 3.126 0 0 0 0-6.25H40.625a3.126 3.126 0 0 0 0 6.25z" stroke="#fff" fill="none" data-original="#000000" id="server_path6"></path>
<path d="M90.553 21.875a9.375 9.375 0 0 0-9.375-9.375H18.496a9.375 9.375 0 0 0-9.375 9.375v15.698a9.375 9.375 0 0 0 9.375 9.375h62.682a9.375 9.375 0 0 0 9.375-9.375zm-63.957 3.162a4.69 4.69 0 0 1 4.688 4.687 4.69 4.69 0 0 1-4.688 4.688 4.69 4.69 0 0 1-4.687-4.688c0-2.587 2.1-4.687 4.687-4.687zm14.029 7.812h33.927a3.126 3.126 0 0 0 0-6.25H40.625a3.126 3.126 0 0 0 0 6.25z" stroke="#fff" fill="none" data-original="#000000" id="server_path6"></path>
<path d="M90.553 21.875a9.375 9.375 0 0 0-9.375-9.375H18.496a9.375 9.375 0 0 0-9.375 9.375v15.698a9.375 9.375 0 0 0 9.375 9.375h62.682a9.375 9.375 0 0 0 9.375-9.375zm-63.957 3.162a4.69 4.69 0 0 1 4.688 4.687 4.69 4.69 0 0 1-4.688 4.688 4.69 4.69 0 0 1-4.687-4.688c0-2.587 2.1-4.687 4.687-4.687zm14.029 7.812h33.927a3.126 3.126 0 0 0 0-6.25H40.625a3.126 3.126 0 0 0 0 6.25z" stroke="#fff" fill="none" data-original="#000000" id="server_path6"></path>
</g>
</g>
</svg>